# xmcd
#
# Track frame offsets: 
#        150
#        17237
#        31659
#        52252
#        69136
#        90949
#        111039
#        127316
#        140214
#        158005
#
# Disc length: 2295 seconds
#
# Revision: 5
# Processed by: cddbd v1.5.2PL0 Copyright (c) Steve Scherf et al.
# Submitted via: ExactAudioCopyFreeDBPlugin 1.0
#
DISCID=8308f50a
DTITLE=Crowded House - Temple Of Low Men (Deluxe) [CD1]
DYEAR=1988
DGENRE=Rock
TTITLE0=I Feel Possessed
TTITLE1=Kill Eye
TTITLE2=Into Temptation
TTITLE3=Mansion In The Slums
TTITLE4=When You Come
TTITLE5=Never Be The Same
TTITLE6=Love This Life
TTITLE7=Sister Madly
TTITLE8=In The Lowlands
TTITLE9=Better Be Home Soon
EXTD=
EXTT0=
EXTT1=
EXTT2=
EXTT3=
EXTT4=
EXTT5=
EXTT6=
EXTT7=
EXTT8=
EXTT9=
PLAYORDER=
